PathFileType	4	(x/y/z)	S04_M20_T19.trc
DataRate	CameraRate	NumFrames	NumMarkers	Units	OrigDataRate	OrigDataStartFrame	OrigNumFrames
240	240	9	51	mm	240	466	532
Frame#	Time	Sternum			R.Acromium			L.Acromium			Top.Head			R.ASIS			L.ASIS			R.PSIS			L.PSIS			R.Great.Tro			L.Great.Tro			R.Iliac.Crest			L.Iliac.Crest			V.Sacral			R.Thigh.Upper.Post			R.Thigh.Lower.Ant			R.Thigh.Lower.Post			R.Thigh.Upper.Ant			R.Knee.Lat			R.Knee.Med			R.Shank.Upper.Post			R.Shank.Lower.Ant			R.Shank.Lower.Post			R.Shank.Upper.Ant			R.Ankle.Lat			R.Ankle.Med			R.Heel.Upper			R.Heel.Med			R.Heel.Lat			R.Toe.Lat			R.Toe.Med			R.Toe.Tip			L.Thigh.Upper.Post			L.Thigh.Lower.Ant			L.Thigh.Lower.Post			L.Thigh.Upper.Ant			L.Knee.Lat			L.Knee.Med			L.Shank.Upper.Post			L.Shank.Lower.Ant			L.Shank.Lower.Post			L.Shank.Upper.Ant			L.Ankle.Lat			L.Ankle.Med			L.Heel.Upper			L.Heel.Med			L.Heel.Lat			L.Toe.Lat			L.Toe.Med			L.Toe.Tip			Cervical.Spine			Back			
		X1	Y1	Z1	X2	Y2	Z2	X3	Y3	Z3	X4	Y4	Z4	X5	Y5	Z5	X6	Y6	Z6	X7	Y7	Z7	X8	Y8	Z8	X9	Y9	Z9	X10	Y10	Z10	X11	Y11	Z11	X12	Y12	Z12	X13	Y13	Z13	X14	Y14	Z14	X15	Y15	Z15	X16	Y16	Z16	X17	Y17	Z17	X18	Y18	Z18	X19	Y19	Z19	X20	Y20	Z20	X21	Y21	Z21	X22	Y22	Z22	X23	Y23	Z23	X24	Y24	Z24	X25	Y25	Z25	X26	Y26	Z26	X27	Y27	Z27	X28	Y28	Z28	X29	Y29	Z29	X30	Y30	Z30	X31	Y31	Z31	X32	Y32	Z32	X33	Y33	Z33	X34	Y34	Z34	X35	Y35	Z35	X36	Y36	Z36	X37	Y37	Z37	X38	Y38	Z38	X39	Y39	Z39	X40	Y40	Z40	X41	Y41	Z41	X42	Y42	Z42	X43	Y43	Z43	X44	Y44	Z44	X45	Y45	Z45	X46	Y46	Z46	X47	Y47	Z47	X48	Y48	Z48	X49	Y49	Z49	X50	Y50	Z50	X51	Y51	Z51	

466	1.9375	1697.1	1273	276.2	1590.6	1499.6	467.98	1543	1487.2	119.27	1587	1825.9	285.23	1698.6	991.86	405.18	1654	1004.3	155.55	1470.9	1027.3	348.21	1465.1	1034.2	267.24	1630.1	915.08	486.99	1518.7	927.53	116.97	1615.7	1079.2	467.42	1550	1087.8	129.18	1446.8	988.93	309.55	1729.4	672.79	474.72	1826.6	630.2	426.57	1766.5	591.01	455.69	1789.3	732.6	449.86	1813.9	541.05	442.53	1780.9	525.17	309.58	1788.5	308.36	447.9	1867.8	245.83	405.34	1802.2	240.12	433.62	1851.5	313.94	426.43	1840	126.5	417.86	1853.2	145.8	326.71	1783.4	77.822	363.41	1799.1	50.956	331.54	1798.5	47.53	397.88	1967	85.932	436.72	1993.2	100.2	319.33	2049.4	137.34	364	1465	702.95	141.87	1532.5	592.74	144.94	1461.6	613.63	155.85	1532.3	682.1	127.4	1483.7	511.65	162.17	1496.5	501.49	288.82	1365.3	347.61	179.56	1420.3	250.46	182.24	1359.3	270.9	190.43	1426.9	326.12	170.82	1375	106.66	210.6	1382.7	118	304.59	1298.2	78.316	259.96	1304.2	51.748	292.48	1300	52.198	230.69	1481	42.095	185.01	1517.2	43.463	301.06	1573.2	51.347	250.52	1517.4	1544.5	304.59	1435.6	1287.2	292.2
467	1.9417	1702.1	1272	276.14	1596.1	1498.7	468.14	1547.9	1486.3	119.51	1592.3	1825.1	285.41	1703.9	990.99	404.9	1658.6	1003.4	155.4	1476.1	1026.5	348.62	1470	1033.4	267.67	1635.5	914.25	486.99	1523	927	117.22	1621.1	1078.3	467.45	1554.5	1087	129.37	1451.8	988.13	310.01	1734.5	671.87	474.94	1831.7	629.32	426.74	1771.6	590.11	455.92	1794.3	731.71	449.96	1819.3	540.49	442.75	1786.2	524.12	309.81	1798.4	307.38	447.81	1878.9	246.65	405.21	1813.5	239.51	433.45	1861.3	314.31	426.37	1853.7	126.65	417.5	1866.4	146.41	326.35	1798	76.903	363.02	1814.3	50.417	331.1	1813.8	46.887	397.41	1981.5	88.697	436.15	2007.3	103.73	318.71	2062.7	141.92	363.4	1468.1	702.86	142.24	1535	592.36	145.08	1464.3	613.59	156.16	1535.2	681.73	127.59	1485.6	511.48	162.32	1498.6	501.2	288.98	1366.5	348	179.93	1421.1	250.6	182.39	1360.1	271.31	190.74	1428	326.22	170.97	1374.9	106.9	210.87	1383	118.21	304.83	1298.3	78.607	260.27	1304.4	51.964	292.76	1300	52.54	230.93	1480.9	42.139	185.06	1517.3	43.355	301.1	1573.3	51.176	250.51	1522.7	1543.6	304.86	1440.6	1286.5	292.61
468	1.9458	1707.2	1271	276.08	1601.6	1497.8	468.32	1552.9	1485.4	119.76	1597.7	1824.3	285.6	1709.1	990.09	404.62	1663.2	1002.5	155.25	1481.2	1025.7	349.04	1475	1032.6	268.11	1641	913.38	487	1527.3	926.46	117.48	1626.5	1077.4	467.48	1559	1086.1	129.58	1456.9	987.32	310.47	1739.5	670.92	475.17	1836.7	628.41	426.91	1776.6	589.17	456.17	1799.2	730.78	450.06	1824.7	539.91	442.99	1791.5	523.04	310.05	1808.2	306.46	447.71	1890	247.53	405.08	1824.7	238.97	433.26	1871	314.72	426.33	1867.3	126.91	417.13	1879.5	147.12	325.98	1812.5	76.134	362.59	1829.2	50.034	330.63	1829	46.411	396.91	1995.9	91.571	435.62	2021.2	107.36	318.13	2075.9	146.57	362.88	1471.3	702.76	142.62	1537.5	591.96	145.22	1467	613.53	156.48	1538.1	681.35	127.78	1487.6	511.3	162.48	1500.8	500.91	289.14	1367.8	348.39	180.3	1421.9	250.73	182.53	1361	271.71	191.05	1429.2	326.33	171.14	1374.9	107.15	211.15	1383.4	118.42	305.07	1298.5	78.922	260.58	1304.5	52.206	293.05	1300.1	52.906	231.18	1480.9	42.184	185.12	1517.4	43.247	301.14	1573.4	51	250.5	1528	1542.8	305.15	1445.5	1285.7	293.02
469	1.95	1712.3	1270	276.03	1607.1	1496.8	468.5	1557.8	1484.5	120.01	1603	1823.4	285.8	1714.4	989.15	404.35	1667.8	1001.6	155.11	1486.4	1024.9	349.47	1479.9	1031.8	268.56	1646.5	912.5	487.01	1531.6	925.9	117.75	1632	1076.5	467.51	1563.5	1085.3	129.8	1462	986.5	310.95	1744.5	669.95	475.4	1841.7	627.45	427.08	1781.7	588.2	456.42	1804.1	729.82	450.15	1830.1	539.29	443.24	1796.8	521.92	310.3	1818	305.58	447.6	1900.9	248.46	404.95	1835.8	238.51	433.06	1880.5	315.16	426.3	1880.7	127.29	416.75	1892.5	147.94	325.61	1826.8	75.511	362.12	1844.1	49.805	330.13	1844	46.097	396.37	2010	94.545	435.12	2034.9	111.08	317.58	2088.8	151.27	362.42	1474.5	702.65	143.02	1540.1	591.56	145.36	1469.7	613.46	156.8	1541.1	680.95	127.97	1489.5	511.11	162.65	1503	500.6	289.32	1369	348.78	180.66	1422.7	250.87	182.69	1362	272.13	191.35	1430.3	326.44	171.3	1374.9	107.4	211.42	1383.7	118.65	305.31	1298.6	79.266	260.9	1304.7	52.477	293.34	1300.2	53.297	231.43	1480.9	42.228	185.17	1517.5	43.14	301.18	1573.5	50.819	250.49	1533.3	1541.9	305.44	1450.5	1284.9	293.45
470	1.9542	1717.3	1269	275.99	1612.7	1495.8	468.69	1562.8	1483.6	120.27	1608.4	1822.5	286.01	1719.8	988.19	404.08	1672.4	1000.7	154.99	1491.6	1024.1	349.9	1484.9	1031	269.02	1652	911.59	487.02	1535.9	925.33	118.02	1637.6	1075.6	467.55	1568.1	1084.4	130.03	1467	985.67	311.44	1749.5	668.96	475.64	1846.7	626.47	427.26	1786.7	587.21	456.69	1809.1	728.84	450.24	1835.5	538.64	443.5	1802.1	520.79	310.55	1827.6	304.75	447.48	1911.7	249.45	404.82	1846.9	238.12	432.85	1890	315.63	426.28	1893.9	127.77	416.35	1905.4	148.86	325.23	1841.1	75.03	361.63	1858.9	49.725	329.6	1858.9	45.935	395.79	2023.9	97.606	434.66	2048.4	114.88	317.08	2101.5	156.01	362.04	1477.7	702.52	143.43	1542.7	591.16	145.49	1472.4	613.39	157.12	1544	680.55	128.16	1491.5	510.91	162.84	1505.3	500.29	289.49	1370.3	349.18	181.01	1423.6	251.02	182.84	1362.9	272.55	191.65	1431.5	326.56	171.48	1374.9	107.66	211.69	1384.1	118.89	305.55	1298.8	79.638	261.21	1304.8	52.778	293.64	1300.3	53.715	231.68	1480.9	42.272	185.23	1517.6	43.033	301.22	1573.6	50.633	250.48	1538.6	1541	305.75	1455.6	1284.1	293.87
471	1.9583	1722.4	1268	275.95	1618.2	1494.8	468.9	1567.8	1482.7	120.55	1613.9	1821.6	286.23	1725.1	987.21	403.81	1677.1	999.75	154.87	1496.8	1023.2	350.35	1489.9	1030.1	269.49	1657.6	910.67	487.04	1540.2	924.74	118.3	1643.1	1074.6	467.59	1572.7	1083.6	130.26	1472.2	984.83	311.93	1754.5	667.95	475.87	1851.7	625.46	427.44	1791.7	586.2	456.96	1814	727.83	450.33	1840.8	537.97	443.77	1807.3	519.63	310.81	1837.2	303.96	447.35	1922.4	250.47	404.68	1857.7	237.79	432.62	1899.4	316.12	426.27	1907	128.35	415.94	1918.1	149.86	324.84	1855.2	74.685	361.1	1873.5	49.788	329.04	1873.6	45.917	395.18	2037.5	100.74	434.24	2061.7	118.74	316.61	2114	160.77	361.73	1480.9	702.38	143.84	1545.3	590.74	145.62	1475.2	613.31	157.44	1547	680.14	128.34	1493.5	510.7	163.05	1507.6	499.97	289.67	1371.7	349.59	181.35	1424.4	251.17	182.99	1363.9	272.97	191.94	1432.7	326.68	171.65	1375	107.94	211.96	1384.5	119.14	305.79	1299	80.042	261.52	1305	53.112	293.93	1300.4	54.161	231.92	1480.8	42.315	185.29	1517.7	42.928	301.26	1573.7	50.444	250.48	1544	1540.1	306.06	1460.6	1283.3	294.31
472	1.9625	1727.6	1266.9	275.92	1623.8	1493.8	469.11	1572.9	1481.8	120.83	1619.3	1820.7	286.47	1730.5	986.2	403.56	1681.7	998.78	154.76	1502	1022.3	350.8	1495	1029.3	269.97	1663.1	909.73	487.07	1544.6	924.14	118.59	1648.7	1073.6	467.64	1577.3	1082.7	130.5	1477.3	983.98	312.44	1759.6	666.92	476.11	1856.7	624.43	427.61	1796.8	585.18	457.24	1819	726.81	450.4	1846.1	537.27	444.05	1812.6	518.45	311.08	1846.6	303.22	447.21	1932.9	251.54	404.54	1868.5	237.52	432.39	1908.6	316.63	426.27	1919.9	129.03	415.52	1930.6	150.96	324.46	1869.2	74.469	360.54	1887.9	49.986	328.45	1888.1	46.033	394.53	2050.9	103.94	433.84	2074.7	122.66	316.18	2126.3	165.55	361.49	1484.2	702.23	144.27	1547.9	590.32	145.75	1478	613.23	157.77	1550	679.72	128.52	1495.5	510.47	163.26	1510	499.64	289.86	1373.1	350	181.68	1425.3	251.32	183.14	1365	273.41	192.22	1434	326.81	171.83	1375.1	108.23	212.23	1384.9	119.4	306.02	1299.2	80.479	261.82	1305.1	53.481	294.21	1300.5	54.638	232.16	1480.8	42.358	185.34	1517.8	42.824	301.31	1573.8	50.251	250.48	1549.3	1539.2	306.39	1465.7	1282.5	294.75
473	1.9667	1732.7	1265.8	275.9	1629.4	1492.7	469.33	1577.9	1480.8	121.12	1624.8	1819.7	286.71	1735.9	985.17	403.3	1686.4	997.79	154.66	1507.3	1021.5	351.26	1500	1028.4	270.46	1668.7	908.77	487.1	1549	923.53	118.88	1654.4	1072.7	467.7	1581.9	1081.8	130.75	1482.4	983.13	312.95	1764.6	665.89	476.35	1861.7	623.39	427.78	1801.8	584.14	457.53	1824	725.77	450.47	1851.4	536.56	444.34	1817.9	517.25	311.36	1856	302.52	447.07	1943.3	252.63	404.4	1879.2	237.31	432.15	1917.7	317.15	426.27	1932.6	129.78	415.08	1943	152.12	324.07	1883	74.373	359.96	1902.1	50.309	327.83	1902.3	46.27	393.85	2064	107.19	433.48	2087.5	126.61	315.8	2138.3	170.33	361.31	1487.6	702.07	144.7	1550.6	589.9	145.87	1480.8	613.14	158.09	1553.1	679.29	128.7	1497.5	510.24	163.49	1512.3	499.3	290.04	1374.5	350.42	181.99	1426.2	251.48	183.29	1366	273.85	192.5	1435.3	326.94	172.01	1375.3	108.54	212.48	1385.3	119.69	306.24	1299.4	80.951	262.12	1305.3	53.887	294.49	1300.6	55.145	232.4	1480.8	42.399	185.4	1517.9	42.723	301.35	1573.9	50.054	250.48	1554.7	1538.2	306.72	1470.8	1281.6	295.19
474	1.9708	1737.9	1264.7	275.88	1635	1491.7	469.57	1583	1479.8	121.42	1630.3	1818.7	286.97	1741.3	984.11	403.06	1691.1	996.79	154.57	1512.6	1020.6	351.73	1505.1	1027.6	270.96	1674.3	907.8	487.14	1553.3	922.91	119.19	1660.1	1071.7	467.76	1586.6	1080.8	131.01	1487.6	982.27	313.48	1769.7	664.85	476.59	1866.7	622.33	427.93	1806.9	583.1	457.81	1829	724.72	450.52	1856.7	535.83	444.64	1823.1	516.04	311.65	1865.2	301.86	446.93	1953.5	253.75	404.25	1889.6	237.15	431.91	1926.8	317.69	426.28	1945.1	130.6	414.64	1955.2	153.36	323.68	1896.6	74.388	359.35	1916.2	50.746	327.19	1916.4	46.617	393.14	2076.9	110.46	433.16	2100.1	130.58	315.45	2150.1	175.09	361.21	1490.9	701.91	145.13	1553.3	589.47	145.99	1483.7	613.05	158.42	1556.2	678.86	128.88	1499.5	510	163.72	1514.8	498.96	290.23	1375.9	350.84	182.3	1427.2	251.65	183.43	1367.1	274.31	192.76	1436.6	327.07	172.19	1375.4	108.88	212.73	1385.7	119.99	306.45	1299.6	81.458	262.4	1305.5	54.331	294.77	1300.7	55.684	232.63	1480.8	42.438	185.46	1518	42.623	301.39	1574	49.854	250.48	1560.1	1537.3	307.07	1476	1280.7	295.64
